<mxfile host="65bd71144e">
    <diagram id="IgQ8rar1_xDH-KlDlogl" name="Page-1">
        <mxGraphModel dx="1198" dy="749" grid="1" gridSize="10" guides="1" tooltips="1" connect="1" arrows="1" fold="1" page="1" pageScale="1" pageWidth="850" pageHeight="1100" math="0" shadow="0">
            <root>
                <mxCell id="0"/>
                <mxCell id="1" parent="0"/>
                <mxCell id="2" value="" style="shape=image;verticalLabelPosition=bottom;labelBackgroundColor=#ffffff;verticalAlign=top;aspect=fixed;imageAspect=0;image=https://refactoring.guru/images/patterns/diagrams/abstract-factory/solution1.png;" vertex="1" parent="1">
                    <mxGeometry x="10" y="10" width="420" height="280" as="geometry"/>
                </mxCell>
                <mxCell id="3" value="" style="shape=image;verticalLabelPosition=bottom;labelBackgroundColor=#ffffff;verticalAlign=top;aspect=fixed;imageAspect=0;image=https://refactoring.guru/images/patterns/diagrams/abstract-factory/solution2.png;" vertex="1" parent="1">
                    <mxGeometry x="30" y="350" width="520" height="260" as="geometry"/>
                </mxCell>
                <mxCell id="4" value="" style="shape=image;verticalLabelPosition=bottom;labelBackgroundColor=#ffffff;verticalAlign=top;aspect=fixed;imageAspect=0;image=https://refactoring.guru/images/patterns/diagrams/abstract-factory/structure.png;" vertex="1" parent="1">
                    <mxGeometry x="80" y="670" width="520" height="325" as="geometry"/>
                </mxCell>
            </root>
        </mxGraphModel>
    </diagram>
</mxfile>